<svg xmlns="http://www.w3.org/2000/svg" viewBox="0 0 48 48" class="{{ with .class }}{{ . }} {{ end }}icon" width="24" height="24">
  <defs>
    <style>.cls-1{fill:#201602}</style>
  </defs>
  <g data-name="55-Note Book">
    <path d="M9 2h3v11a1 1 0 0 0 1.55.83L16 12.2l2.45 1.63A1 1 0 0 0 20 13V2h7V0H7a4 4 0 0 0-4 4v1H1a2 2 0 0 0 2 2v3H1a2 2 0 0 0 2 2v3H1a2 2 0 0 0 2 2v3H1a2 2 0 0 0 2 2v3H1a2 2 0 0 0 2 2v1a4 4 0 0 0 4 4h15v-2H9zM7 30a2 2 0 0 1-2-2v-1h2zm0-5H5v-3h2zm0-5H5v-3h2zm0-5H5v-3h2zm0-5H5V7h2zm0-5H5V4a2 2 0 0 1 2-2z"/>
    <path d="m30.89 8.55-2-4a1 1 0 0 0-1.79 0l-2 4A1 1 0 0 0 25 9v22a1 1 0 0 0 1 1h4a1 1 0 0 0 1-1V9a1 1 0 0 0-.11-.45zM29 30h-2v-3h2zm0-5h-2V10h2z"/>
  </g>
</svg>